<mxfile host="app.diagrams.net" modified="2020-06-16T07:48:42.140Z" agent="5.0 (Windows NT 10.0; Win64; x64) AppleWebKit/537.36 (KHTML, like Gecko) Chrome/79.0.3945.130 Safari/537.36" etag="tIjhbs3cXoam9PiXDHLo" version="13.2.4" type="github">
  <diagram id="pVSCwGX_palrmKzZKZhN" name="Page-1">
    <mxGraphModel dx="865" dy="457" grid="1" gridSize="10" guides="1" tooltips="1" connect="1" arrows="1" fold="1" page="1" pageScale="1" pageWidth="827" pageHeight="1169" math="0" shadow="0">
      <root>
        <mxCell id="0" />
        <mxCell id="1" parent="0" />
        <mxCell id="aurGtNnooqfHZooiZy0h-1" value="[dai2020]" style="rounded=0;whiteSpace=wrap;html=1;" vertex="1" parent="1">
          <mxGeometry x="130" y="80" width="90" height="30" as="geometry" />
        </mxCell>
        <mxCell id="aurGtNnooqfHZooiZy0h-6" value="" style="endArrow=classic;html=1;exitX=0.75;exitY=1;exitDx=0;exitDy=0;entryX=0.5;entryY=0;entryDx=0;entryDy=0;" edge="1" parent="1" source="aurGtNnooqfHZooiZy0h-1" target="aurGtNnooqfHZooiZy0h-2">
          <mxGeometry width="50" height="50" relative="1" as="geometry">
            <mxPoint x="320" y="230" as="sourcePoint" />
            <mxPoint x="370" y="180" as="targetPoint" />
          </mxGeometry>
        </mxCell>
        <mxCell id="aurGtNnooqfHZooiZy0h-8" value="" style="group" vertex="1" connectable="0" parent="1">
          <mxGeometry x="220" y="280" width="282" height="120" as="geometry" />
        </mxCell>
        <mxCell id="aurGtNnooqfHZooiZy0h-5" value="" style="group" vertex="1" connectable="0" parent="aurGtNnooqfHZooiZy0h-8">
          <mxGeometry width="282" height="120" as="geometry" />
        </mxCell>
        <mxCell id="aurGtNnooqfHZooiZy0h-2" value="[zhang2003]" style="rounded=0;whiteSpace=wrap;html=1;" vertex="1" parent="aurGtNnooqfHZooiZy0h-5">
          <mxGeometry x="40" width="90" height="30" as="geometry" />
        </mxCell>
        <mxCell id="aurGtNnooqfHZooiZy0h-4" value="这篇论文主要提到的是改变 embedded 系统的cache 参数可以降低运行功耗&lt;br&gt;因为嵌入式系统运行的程序比较单一" style="text;html=1;strokeColor=none;fillColor=none;align=center;verticalAlign=middle;whiteSpace=wrap;rounded=0;" vertex="1" parent="aurGtNnooqfHZooiZy0h-5">
          <mxGeometry x="-10" y="30" width="210" height="70" as="geometry" />
        </mxCell>
        <mxCell id="aurGtNnooqfHZooiZy0h-7" value="效果是优于shutdown 和原始方法" style="text;html=1;align=center;verticalAlign=middle;resizable=0;points=[];autosize=1;" vertex="1" parent="aurGtNnooqfHZooiZy0h-5">
          <mxGeometry x="130" y="5" width="190" height="20" as="geometry" />
        </mxCell>
      </root>
    </mxGraphModel>
  </diagram>
</mxfile>
